<?xml version="1.0" standalone="no"?>
<!DOCTYPE svg PUBLIC "-//W3C//DTD SVG 20010904//EN"
 "http://www.w3.org/TR/2001/REC-SVG-20010904/DTD/svg10.dtd">
<svg version="1.0" xmlns="http://www.w3.org/2000/svg"
 width="1024.000000pt" height="1024.000000pt" viewBox="0 0 1024.000000 1024.000000"
 preserveAspectRatio="xMidYMid meet">

<g transform="translate(0.000000,1024.000000) scale(0.100000,-0.100000)"
fill="#000000" stroke="none">
<path d="M4885 8635 c-443 -70 -846 -331 -1105 -718 -97 -145 -162 -313 -191
-492 -7 -44 -13 -81 -14 -82 0 -1 -42 -7 -93 -13 -265 -30 -482 -172 -596
-390 -66 -124 -86 -217 -86 -387 0 -62 -1 -114 -2 -115 -2 -1 -158 -4 -348 -8
-316 -6 -351 -9 -419 -29 -103 -31 -205 -80 -278 -135 l-63 -46 0 -392 c1
-298 3 -388 12 -373 18 32 28 35 120 35 82 0 88 -1 107 -26 l21 -27 0 -1312 0
-1312 43 -39 c64 -59 136 -101 202 -119 48 -12 128 -15 437 -15 l378 0 0 433
0 434 23 21 c18 17 37 22 97 24 l75 3 3 247 2 247 -404 3 -405 3 -30 29 c-54
52 -50 136 8 174 23 15 73 17 501 17 457 0 476 -1 508 -20 70 -42 72 -51 72
-356 0 -151 3 -291 6 -311 l7 -38 249 0 249 0 24 -25 25 -24 0 -431 0 -430
174 0 174 0 0 52 c0 44 4 56 26 75 24 21 37 23 127 23 l99 0 -2 253 -3 252
-98 5 c-145 7 -137 -12 -137 326 l0 274 -370 0 -370 0 -15 24 c-14 21 -15 64
-13 315 3 284 3 291 25 313 31 30 124 36 173 11 55 -28 60 -48 60 -245 l0
-178 215 0 215 0 0 255 0 255 -147 0 c-82 0 -166 5 -187 10 -53 12 -85 52 -86
108 0 99 28 112 250 112 l170 0 0 425 0 425 -22 4 c-13 3 -39 7 -58 11 -98 15
-195 90 -239 184 l-26 56 0 345 c0 379 1 389 61 471 58 80 190 166 299 195 69
19 182 17 246 -3 66 -21 157 -107 179 -168 10 -30 15 -127 18 -405 4 -393 -1
-453 -44 -527 -31 -54 -105 -118 -160 -139 l-44 -17 0 -428 0 -429 180 0 c203
0 226 -6 254 -64 22 -46 20 -67 -7 -107 -34 -50 -69 -58 -257 -58 l-165 1 -3
-256 -2 -256 550 0 550 0 0 254 0 255 -174 3 c-197 3 -218 10 -245 81 -17 45
-8 81 29 118 l28 29 181 0 181 0 0 290 0 290 -35 0 c-49 0 -177 27 -241 51
-137 51 -283 185 -352 324 -66 131 -67 139 -67 485 l1 315 27 82 c62 184 211
338 410 421 60 25 69 26 315 30 234 3 259 2 320 -17 131 -40 269 -144 346
-260 66 -98 89 -175 70 -226 -9 -21 -56 -45 -91 -45 -46 1 -69 21 -130 110
-67 97 -150 169 -233 202 -46 18 -81 22 -212 26 -96 2 -184 -1 -225 -8 -173
-30 -315 -160 -358 -328 -14 -52 -16 -110 -13 -340 4 -309 4 -310 78 -408 78
-103 201 -174 328 -189 l62 -7 0 85 0 85 -57 21 c-80 30 -145 80 -198 151 -71
97 -89 155 -89 285 0 130 19 190 89 282 83 111 192 171 325 180 374 26 615
-397 410 -718 -44 -68 -131 -146 -196 -176 l-57 -26 6 -80 c4 -44 8 -81 10
-83 2 -2 30 3 63 12 114 29 202 107 286 251 51 87 83 110 137 98 17 -3 42 -21
57 -38 22 -27 25 -38 22 -79 -7 -65 -65 -180 -129 -251 -94 -106 -215 -173
-364 -204 l-85 -18 0 -287 0 -288 185 0 185 0 31 -28 c24 -21 32 -39 36 -73 5
-40 2 -50 -23 -78 -39 -43 -80 -51 -259 -50 l-150 1 -3 -256 -2 -256 235 0
235 0 0 186 0 186 28 28 c55 54 182 50 213 -6 20 -39 21 -593 0 -617 -12 -15
-53 -17 -402 -17 l-389 0 2 -281 3 -281 -24 -19 c-19 -16 -39 -19 -112 -19
l-89 0 0 -255 0 -255 99 0 c125 0 146 -13 156 -95 l7 -55 119 0 119 0 0 524 0
525 23 26 c25 29 77 41 132 31 26 -5 41 -16 55 -39 19 -31 20 -54 20 -549 l0
-518 159 0 160 0 3 260 c3 253 4 260 25 282 18 17 34 22 75 22 101 0 123 -18
130 -104 l3 -35 408 -1 407 0 0 80 -1 81 -44 32 c-56 41 -94 106 -102 172 -3
28 -8 51 -10 51 -2 0 -51 -12 -109 -26 -128 -33 -153 -28 -235 45 -55 49 -57
50 -93 39 -34 -11 -36 -14 -36 -52 0 -91 -81 -163 -168 -152 -159 21 -248 189
-176 334 66 133 239 187 313 98 10 -12 32 -16 78 -16 72 0 105 -13 175 -71 26
-22 53 -39 60 -39 7 0 55 12 105 27 l93 28 0 73 c0 64 3 76 25 97 44 45 147
27 173 -30 8 -17 12 -92 13 -218 0 -106 3 -199 7 -209 4 -9 29 -31 57 -50 33
-22 57 -49 75 -83 25 -49 25 -51 28 -343 l3 -295 68 5 c86 6 190 56 274 129
l57 51 0 1432 c0 1279 2 1434 16 1454 14 20 24 22 102 22 63 0 94 -4 110 -16
l22 -15 0 260 c0 292 6 268 -85 326 -81 52 -148 83 -242 112 -86 26 -94 27
-433 32 l-345 6 -2 120 c-3 163 -23 259 -80 375 -39 80 -60 109 -134 182 -75
74 -103 94 -191 137 -106 52 -185 75 -299 86 l-66 7 -7 52 c-19 166 -101 376
-213 545 -77 116 -308 347 -428 428 -226 152 -447 239 -688 272 -103 14 -321
12 -422 -4z m31 -648 c29 -26 37 -42 41 -81 10 -85 -42 -146 -124 -146 -121 0
-178 146 -89 227 30 28 43 33 86 33 43 0 56 -5 86 -33z m487 -78 c72 -33 76
-159 6 -195 -58 -30 -125 -8 -153 50 -20 42 -20 59 -1 96 29 55 90 76 148 49z
m1554 -1245 c13 -8 31 -29 40 -47 17 -30 18 -91 18 -967 l0 -935 -110 0 -110
0 -3 137 -3 138 -72 62 c-125 107 -112 27 -115 688 -2 368 1 600 8 643 32 207
222 360 347 281z m-3537 -39 c54 -28 75 -98 45 -155 -19 -36 -43 -50 -90 -50
-95 0 -145 108 -81 179 38 42 79 50 126 26z m-566 -560 c54 -23 116 -84 142
-140 23 -48 24 -59 24 -308 0 -234 -2 -261 -19 -295 -22 -44 -65 -88 -103
-108 l-28 -15 0 -289 0 -290 45 0 c60 0 91 -16 110 -57 20 -42 13 -82 -21
-114 -25 -24 -28 -24 -244 -24 l-219 0 -30 29 c-43 41 -43 95 -2 137 26 26 36
29 90 29 l61 0 0 290 c0 269 -1 290 -17 290 -28 0 -118 56 -148 92 -61 72 -66
97 -65 336 0 249 7 283 72 357 67 76 148 108 255 99 34 -2 78 -11 97 -19z
m433 -42 c23 -28 23 -32 23 -320 0 -160 4 -303 9 -316 18 -47 79 -47 99 -1 8
17 12 119 12 320 l0 296 29 29 c39 39 83 39 121 1 25 -25 29 -38 35 -118 13
-146 0 -572 -17 -614 -18 -43 -65 -84 -113 -100 l-35 -12 0 -341 c0 -252 -4
-349 -13 -367 -7 -14 -29 -33 -49 -43 -30 -15 -44 -16 -76 -8 -79 22 -77 9
-80 409 -3 347 -3 356 -23 370 -12 8 -34 35 -50 60 l-29 46 0 347 0 347 32 27
c41 34 92 29 125 -12z m4185 9 c34 -29 38 -82 38 -509 l0 -423 58 0 57 0 0
442 c0 412 1 445 18 470 24 35 66 49 111 37 67 -19 66 -8 66 -504 l0 -445 34
-14 c64 -27 78 -106 27 -157 l-29 -29 -292 0 c-316 0 -334 3 -358 55 -7 14
-12 37 -12 50 0 35 45 83 86 91 l34 6 0 439 c0 324 3 445 12 465 23 51 106 65
150 26z m374 -1397 l25 -26 -3 -197 c-3 -194 -3 -198 -30 -243 -115 -196 -401
-195 -512 1 l-31 55 0 198 c0 197 0 199 24 218 21 18 42 19 263 19 l239 0 25
-25z m-850 -126 c18 -19 19 -39 19 -251 l0 -230 -33 -29 c-63 -57 -159 -31
-182 49 -7 23 -10 114 -8 245 4 246 -1 237 113 237 60 0 75 -3 91 -21z m-4388
-641 c7 -7 12 -39 12 -73 0 -48 8 -82 39 -156 69 -170 84 -226 77 -283 -6 -58
-24 -76 -72 -76 -61 0 -81 15 -99 72 -25 76 -84 221 -94 231 -9 9 -80 -163
-102 -245 -11 -41 -16 -47 -45 -50 -17 -2 -50 -2 -71 0 -39 4 -40 6 -51 51
-13 59 -4 97 63 266 41 104 47 129 46 187 -1 54 2 69 16 77 26 15 266 14 281
-1z m91 -779 c42 -45 38 -157 -6 -209 l-25 -30 -192 0 c-154 0 -196 3 -213 15
-55 39 -71 189 -23 227 20 16 44 18 231 18 200 0 209 -1 228 -21z"/>
<path d="M3249 3318 c-1 -4 -1 -502 0 -595 l1 -83 269 0 270 0 3 333 c2 182 2
335 0 340 -3 6 -541 11 -543 5z"/>
<path d="M4930 2970 l0 -330 150 0 150 0 0 330 0 330 -150 0 -150 0 0 -330z"/>
<path d="M6820 2745 l0 -105 410 0 410 0 0 105 0 105 -410 0 -410 0 0 -105z"/>
<path d="M2083 2412 l-403 -2 0 -290 0 -290 3423 0 3424 0 7 286 c4 157 4 289
1 293 -6 6 -5594 9 -6452 3z"/>
</g>
</svg>
